<?xml version="1.0" encoding="UTF-8"?>
<!DOCTYPE svg PUBLIC "-//W3C//DTD SVG 1.1//EN" "http://www.w3.org/Graphics/SVG/1.1/DTD/svg11.dtd">
<!-- Creator: CorelDRAW 2020 (64-Bit) -->
<svg xmlns="http://www.w3.org/2000/svg" xml:space="preserve" width="100px" height="148px" version="1.1" style="shape-rendering:geometricPrecision; text-rendering:geometricPrecision; image-rendering:optimizeQuality; fill-rule:evenodd; clip-rule:evenodd"
viewBox="0 0 100 147.58"
 xmlns:xlink="http://www.w3.org/1999/xlink"
 xmlns:xodm="http://www.corel.com/coreldraw/odm/2003">
 <defs>
  <style type="text/css">
   <![CDATA[
    .fil4 {fill:#373435}
    .fil3 {fill:#FFF212}
    .fil2 {fill:#EC268F}
    .fil1 {fill:#00AFEF}
    .fil0 {fill:#2C2F58}
   ]]>
  </style>
 </defs>
 <g id="Layer_x0020_1">
  <metadata id="CorelCorpID_0Corel-Layer"/>
  <path class="fil0" d="M7.17 6.29l9.58 0c-1.72,7.83 -5.68,15.27 -12.29,19.84l-0.2 0.03c-0.09,-0.3 -0.14,-0.62 -0.14,-0.94l0 -15.84c0,-1.7 1.37,-3.09 3.05,-3.09zm18.21 12.28l0 6.65c0,1.7 -1.37,3.09 -3.04,3.09l-15.17 0c-0.62,0 -1.2,-0.19 -1.68,-0.52 8.64,-0.82 15.57,-3.24 19.89,-9.22z"/>
  <g id="_1525814127904">
   <path class="fil1" d="M18.51 0.16c-0.93,12.88 -6.8,22.1 -13.73,26.81 10.1,-5.97 16.9,-13.37 13.73,-26.81z"/>
   <path class="fil2" d="M22.27 2.51c-2.8,12.59 -9.95,20.84 -17.49,24.46 10.86,-4.4 18.67,-10.7 17.49,-24.46z"/>
   <path class="fil3" d="M25.64 5.39c-4.6,12.04 -12.87,19.13 -20.86,21.58 11.38,-2.72 20.02,-7.79 20.86,-21.58z"/>
   <path class="fil4" d="M28.55 8.75c-6.3,11.21 -15.51,16.99 -23.77,18.22 11.66,-0.99 20.93,-4.71 23.77,-18.22z"/>
  </g>
 </g>
</svg>
